<?xml version="1.0" standalone="no"?><!DOCTYPE svg PUBLIC "-//W3C//DTD SVG 1.1//EN" "http://www.w3.org/Graphics/SVG/1.1/DTD/svg11.dtd"><svg t="1697350934467" class="icon" viewBox="0 0 1024 1024" version="1.1" xmlns="http://www.w3.org/2000/svg" p-id="16966" xmlns:xlink="http://www.w3.org/1999/xlink" width="200" height="200"><path d="M1024 512v5.4c-0.8 73-67.2 122.6-140.2 122.6H688c-53 0-96 43-96 96 0 6.8 0.8 13.4 2 19.8 4.2 20.4 13 40 21.6 59.8 12.2 27.6 24.2 55 24.2 84 0 63.6-43.2 121.4-106.8 124-7 0.2-14 0.4-21.2 0.4C229.2 1024 0 794.8 0 512S229.2 0 512 0s512 229.2 512 512z m-768 64a64 64 0 1 0-128 0 64 64 0 1 0 128 0z m0-192a64 64 0 1 0 0-128 64 64 0 1 0 0 128z m320-192a64 64 0 1 0-128 0 64 64 0 1 0 128 0z m192 192a64 64 0 1 0 0-128 64 64 0 1 0 0 128z" p-id="16967" fill="#1296db"></path></svg>