<?xml version="1.0" standalone="no"?><!DOCTYPE svg PUBLIC "-//W3C//DTD SVG 1.1//EN" "http://www.w3.org/Graphics/SVG/1.1/DTD/svg11.dtd"><svg t="1697609910852" class="icon" viewBox="0 0 1151 1024" version="1.1" xmlns="http://www.w3.org/2000/svg" p-id="16674" width="22.48046875" height="20" xmlns:xlink="http://www.w3.org/1999/xlink"><path d="M678.557974 734.217947c54.596619-7.799517 103.793572-38.797597 134.391677-85.794686L1136.329623 148.254238c25.198439-38.997585 18.798836-90.594389-15.199059-122.39242s-85.794686-34.597857-122.992382-6.599591L524.767499 374.44023c-47.997027 35.997771-76.395269 92.19429-76.795244 152.190574l230.585719 207.587143z m-39.197572 50.796854l-231.985632-208.787069C287.782177 580.62746 191.988109 679.221353 191.988109 800.013872c0 7.799517 0.399975 15.599034 1.199926 23.198563 3.599777 34.997832-20.398737 72.795492-55.596557 72.795492H127.992073c-35.397808 0-63.996036 28.598229-63.996037 63.996037s28.598229 63.996036 63.996037 63.996036h287.982164c123.792333 0 223.986128-100.193795 223.986128-223.986128 0-4.99969-0.199988-9.999381-0.399975-14.999071z" p-id="16675" fill="#1296db"></path></svg>