<?xml version="1.0" standalone="no"?><!DOCTYPE svg PUBLIC "-//W3C//DTD SVG 1.1//EN" "http://www.w3.org/Graphics/SVG/1.1/DTD/svg11.dtd"><svg t="1697350588718" class="icon" viewBox="0 0 1024 1024" version="1.1" xmlns="http://www.w3.org/2000/svg" p-id="16563" xmlns:xlink="http://www.w3.org/1999/xlink" width="200" height="200"><path d="M192 0C174.2 0 157.2 7.4 145.2 20.4S126.8 50.8 128.2 68.6l57.6 806.8c6 83.8 75.6 148.6 159.6 148.6h333.2c84 0 153.6-64.8 159.6-148.6l57.6-806.8c1.2-17.8-4.8-35.2-17-48.2S849.8 0 832 0H192z m102 595L260.8 128h502.4L730 595l-26 13c-40.2 20.2-87.8 20.2-128 0s-87.8-20.2-128 0-87.8 20.2-128 0l-26-13zM640 392c0-48-67.4-140.2-104.4-187-12.2-15.4-35-15.4-47.2 0C451.4 251.8 384 344 384 392c0 66.2 57.4 120 128 120s128-53.8 128-120z" p-id="16564" fill="#1296db"></path></svg>