<?xml version="1.0" standalone="no"?><!DOCTYPE svg PUBLIC "-//W3C//DTD SVG 1.1//EN" "http://www.w3.org/Graphics/SVG/1.1/DTD/svg11.dtd"><svg t="1697438141462" class="icon" viewBox="0 0 1024 1024" version="1.1" xmlns="http://www.w3.org/2000/svg" p-id="17250" width="20" height="20" xmlns:xlink="http://www.w3.org/1999/xlink"><path d="M432 0h160c26.6 0 48 21.4 48 48v80H384V48c0-26.6 21.4-48 48-48zM256 303.4c0-31.2 18-59.6 46.4-73l48.8-22.8c22-10.2 46-15.6 70.2-15.6h181.2c24.2 0 48.2 5.4 70.2 15.6l48.8 22.8c28.2 13.2 46.4 41.6 46.4 73 0 28.8-15 54-37.8 68.2 23 17.6 37.8 45.2 37.8 76.4 0 33.4-17 62.8-43 80 25.8 17.2 43 46.6 43 80s-17 62.8-43 80c25.8 17.2 43 46.6 43 80s-17 62.8-43 80c25.8 17.2 43 46.6 43 80 0 53-43 96-96 96H352c-53 0-96-43-96-96 0-33.4 17-62.8 43-80-26-17.2-43-46.6-43-80s17-62.8 43-80c-26-17.2-43-46.6-43-80s17-62.8 43-80c-26-17.2-43-46.6-43-80 0-31.2 14.8-58.8 37.8-76.4-22.8-14.2-37.8-39.4-37.8-68.2zM384 480c0 17.6 14.4 32 32 32h192c17.6 0 32-14.4 32-32s-14.4-32-32-32h-192c-17.6 0-32 14.4-32 32z m32 224c-17.6 0-32 14.4-32 32s14.4 32 32 32h192c17.6 0 32-14.4 32-32s-14.4-32-32-32h-192z" p-id="17251" fill="#F4B400"></path></svg>