<?xml version="1.0" standalone="no"?><!DOCTYPE svg PUBLIC "-//W3C//DTD SVG 1.1//EN" "http://www.w3.org/Graphics/SVG/1.1/DTD/svg11.dtd"><svg t="1697350864887" class="icon" viewBox="0 0 1024 1024" version="1.1" xmlns="http://www.w3.org/2000/svg" p-id="16566" xmlns:xlink="http://www.w3.org/1999/xlink" width="200" height="200"><path d="M480.2 8.4c19.6-11.2 43.8-11.2 63.6 0l343.6 196.2 8.6 3.4v1.8l95.8 54.8c25.2 14.4 37.6 44 30.2 72s-32.8 47.6-61.8 47.6H64c-29 0-54.4-19.6-61.8-47.6s5-57.6 30.2-72L128 209.8v-1.8l8.8-3.2L480.2 8.4zM128 448h128v384h80V448h128v384h96V448h128v384h80V448h128v392.6c1.2 0.6 2.4 1.4 3.6 2.2l96 64c23.4 15.6 34 44.8 25.8 71.8S988.2 1024 960 1024H64c-28.2 0-53-18.4-61.2-45.4s2.2-56.2 25.8-71.8l96-64c1.2-0.8 2.4-1.4 3.6-2.2V448z" p-id="16567" fill="#1296db"></path></svg>