<?xml version="1.0" standalone="no"?><!DOCTYPE svg PUBLIC "-//W3C//DTD SVG 1.1//EN" "http://www.w3.org/Graphics/SVG/1.1/DTD/svg11.dtd"><svg t="1697350398019" class="icon" viewBox="0 0 1024 1024" version="1.1" xmlns="http://www.w3.org/2000/svg" p-id="16361" xmlns:xlink="http://www.w3.org/1999/xlink" width="200" height="200"><path d="M517.2 96H298.6l34.2 25.6c12 9 19.2 23.2 19.2 38.4s-7.2 29.4-19.2 38.4l-13 9.8c-20 15-32 38.6-32 63.8l-0.6 182c0 20.4 9.8 39.8 26.4 51.6l3.8 2.6c19.8 14.2 46.6 14 66.4-0.2l99.8-72.6c21.4-15.6 51.4-10.8 67 10.6s10.8 51.4-10.6 67l-99.8 72.6-107.6 78.2c-14.6 10.6-26 24.4-33.8 40.2H197.6c10.6-44.2 35.6-83.8 71.8-112.6-2.6-1.6-5.2-3.4-7.6-5.2l-3.8-2.6c-42-30-66.8-78.4-66.6-130l0.6-182c0.2-39.6 13.4-77.4 37.2-107.8l-0.8-0.6C205.4 146 192 119.2 192 90.6 192 40.6 232.6 0 282.6 0h234.6C726.4 0 896 169.6 896 378.8c0 22.2-2 44.4-5.8 66.4l-46 258.8h-97.6l49-275.6c3-16.4 4.4-33 4.4-49.6C800 222.6 673.4 96 517.2 96zM234.4 864l-33 64h621.2l-33.2-64H234.4z m631.4-61.4l53 102.4c6 11.6 9.2 24.4 9.2 37.4 0 45-36.4 81.6-81.6 81.6H177.6C132.4 1024 96 987.6 96 942.4c0-13 3.2-25.8 9.2-37.4l53-102.4c10.8-21.2 32.8-34.6 56.8-34.6h594c24 0 45.8 13.4 56.8 34.6zM408 256a40 40 0 1 1 0 80 40 40 0 1 1 0-80z" p-id="16362" fill="#1296db"></path></svg>