<?xml version="1.0" standalone="no"?><!DOCTYPE svg PUBLIC "-//W3C//DTD SVG 1.1//EN" "http://www.w3.org/Graphics/SVG/1.1/DTD/svg11.dtd"><svg t="1697610023962" class="icon" viewBox="0 0 1024 1024" version="1.1" xmlns="http://www.w3.org/2000/svg" p-id="17444" width="20" height="20" xmlns:xlink="http://www.w3.org/1999/xlink"><path d="M224 160v224c0 5 2.4 9.8 6.4 12.8l102.4 76.8c13.6 10.2 20.8 26.8 19 43.8L331 704H234.4l18.8-170-80.4-60.4C144.6 452.4 128 419.2 128 384V144c0-44.2 35.8-80 80-80h608c44.2 0 80 35.8 80 80v240c0 35.2-16.6 68.4-44.8 89.6L770.8 534l18.8 170h-96.6l-20.8-186.6c-1.8-16.8 5.4-33.6 19-43.8l102.4-76.8c4-3 6.4-7.8 6.4-12.8V160h-128v48c0 26.6-21.4 48-48 48s-48-21.4-48-48V160h-128v48c0 26.6-21.4 48-48 48s-48-21.4-48-48V160H224z m9.4 768h557.2l-33.2-64H266.4l-33 64z m543.8-160c24 0 45.8 13.4 56.8 34.6l53 102.4c6 11.6 9.2 24.4 9.2 37.4 0 45-36.4 81.6-81.6 81.6H209.6C164.4 1024 128 987.6 128 942.4c0-13 3.2-25.8 9.2-37.4l53-102.4c10.8-21.2 32.8-34.6 56.8-34.6h530zM480 576c-17.6 0-32-14.4-32-32v-96c0-35.4 28.6-64 64-64s64 28.6 64 64v96c0 17.6-14.4 32-32 32h-64z" p-id="17445" fill="#1296db"></path></svg>