<?xml version="1.0" standalone="no"?><!DOCTYPE svg PUBLIC "-//W3C//DTD SVG 1.1//EN" "http://www.w3.org/Graphics/SVG/1.1/DTD/svg11.dtd"><svg t="1697350995780" class="icon" viewBox="0 0 1152 1024" version="1.1" xmlns="http://www.w3.org/2000/svg" p-id="17160" xmlns:xlink="http://www.w3.org/1999/xlink" width="225" height="200"><path d="M128 128C57.4 128 0 185.4 0 256v14.8c0 13.6 8.8 25.2 20.2 32.6C46.6 320.6 64 350.2 64 384s-17.4 63.4-43.8 80.6C8.8 472 0 483.6 0 497.2V640h1152v-142.8c0-13.6-8.8-25.2-20.2-32.6-26.4-17.2-43.8-46.8-43.8-80.6s17.4-63.4 43.8-80.6c11.4-7.4 20.2-19 20.2-32.6V256c0-70.6-57.4-128-128-128H128z m1024 576H0v128c0 35.4 28.6 64 64 64h96v-64c0-17.6 14.4-32 32-32s32 14.4 32 32v64h192v-64c0-17.6 14.4-32 32-32s32 14.4 32 32v64h192v-64c0-17.6 14.4-32 32-32s32 14.4 32 32v64h192v-64c0-17.6 14.4-32 32-32s32 14.4 32 32v64h96c35.4 0 64-28.6 64-64v-128zM384 320v128c0 35.4-28.6 64-64 64s-64-28.6-64-64v-128c0-35.4 28.6-64 64-64s64 28.6 64 64z m256 0v128c0 35.4-28.6 64-64 64s-64-28.6-64-64v-128c0-35.4 28.6-64 64-64s64 28.6 64 64z m256 0v128c0 35.4-28.6 64-64 64s-64-28.6-64-64v-128c0-35.4 28.6-64 64-64s64 28.6 64 64z" p-id="17161" fill="#1296db"></path></svg>