<?xml version="1.0" standalone="no"?><!DOCTYPE svg PUBLIC "-//W3C//DTD SVG 1.1//EN" "http://www.w3.org/Graphics/SVG/1.1/DTD/svg11.dtd"><svg t="1697437923553" class="icon" viewBox="0 0 1024 1024" version="1.1" xmlns="http://www.w3.org/2000/svg" p-id="16372" width="20" height="20" xmlns:xlink="http://www.w3.org/1999/xlink"><path d="M848 0c-24.8 0-48.4 9.8-66 27.4L467 342.4c-21 21-39.6 44.2-55.4 69.2l-146.2 231.6c-14.6 23-31.6 44.4-51 63.8l-74.6 74.4 102.6 102.6 74.6-74.6c19.2-19.2 40.6-36.4 63.8-51l231.6-146.2c25-15.8 48.2-34.4 69.2-55.4L996.6 242c17.4-17.4 27.4-41.2 27.4-66s-9.8-48.4-27.4-66L914 27.4C896.4 9.8 872.8 0 848 0z m176 864a160 160 0 1 0-320 0 160 160 0 1 0 320 0zM30 798c-18.8 18.8-18.8 49.2 0 67.8l128 128c18.8 18.8 49.2 18.8 67.8 0s18.8-49.2 0-67.8L98 798c-18.8-18.8-49.2-18.8-67.8 0z" p-id="16373" fill="#F4B400"></path></svg>