<?xml version="1.0" standalone="no"?><!DOCTYPE svg PUBLIC "-//W3C//DTD SVG 1.1//EN" "http://www.w3.org/Graphics/SVG/1.1/DTD/svg11.dtd"><svg t="1697350646467" class="icon" viewBox="0 0 1280 1024" version="1.1" xmlns="http://www.w3.org/2000/svg" p-id="16757" xmlns:xlink="http://www.w3.org/1999/xlink" width="250" height="200"><path d="M320 0a128 128 0 1 1 0 256 128 128 0 1 1 0-256zM176 960v-160H140.4c-21.8 0-37.2-21.4-30.4-42.2l62.2-186.8-57.2 75.6c-21.4 28.2-61.6 33.6-89.6 12.4s-33.6-61.4-12.4-89.6L130.8 414c44.8-59.2 115-94 189.2-94s144.4 34.8 189.2 94l117.8 155.4c21.4 28.2 15.8 68.4-12.4 89.6s-68.4 15.8-89.6-12.4l-57.2-75.6 62.2 186.8c7 20.8-8.6 42.2-30.4 42.2H464v160c0 35.4-28.6 64-64 64s-64-28.6-64-64v-160h-32v160c0 35.4-28.6 64-64 64s-64-28.6-64-64zM960 0a128 128 0 1 1 0 256 128 128 0 1 1 0-256z m-16 768v192c0 35.4-28.6 64-64 64s-64-28.6-64-64V601L790.2 642c-18.8 30-58.4 38.8-88.2 20s-38.8-58.4-20-88.2l103.4-164.2c35.2-55.8 96.6-89.8 162.4-89.8h24.6c66 0 127.4 33.8 162.4 89.8l103.4 164.4c18.8 30 9.8 69.4-20 88.2s-69.4 9.8-88.2-20l-26-41.2V960c0 35.4-28.6 64-64 64s-64-28.6-64-64v-192h-32z" p-id="16758" fill="#1296db"></path></svg>